<?xml version="1.0" encoding="UTF-8"?>
<svg version="1.1" xmlns="http://www.w3.org/2000/svg" width="1024" height="1024">
<path d="M0 0 C1.13431523 -0.00327219 2.26863047 -0.00654439 3.43731889 -0.00991574 C5.30313677 -0.0076903 5.30313677 -0.0076903 7.20664793 -0.00541991 C8.54870577 -0.00737336 9.89076304 -0.00976241 11.23281941 -0.01254788 C14.9358822 -0.01895188 18.6389233 -0.01910918 22.34199058 -0.01827047 C26.36507037 -0.01843989 30.38814237 -0.02434515 34.41121829 -0.02951133 C42.39741709 -0.03884295 50.38361035 -0.04276033 58.36981392 -0.0450303 C67.93304247 -0.04799092 77.49626365 -0.05668751 87.05948833 -0.06544458 C110.17607397 -0.08629591 133.29266089 -0.09675991 156.40925374 -0.10557419 C167.3436328 -0.10977977 178.27801131 -0.11500188 189.2123899 -0.12025872 C226.63678233 -0.13814962 264.06117491 -0.15314591 301.48557097 -0.16057891 C303.83541437 -0.16105366 306.18525778 -0.16152955 308.53510118 -0.16200657 C310.28308046 -0.16236113 310.28308046 -0.16236113 312.06637245 -0.16272286 C317.97053025 -0.16392407 323.87468805 -0.16513951 329.77884585 -0.16636485 C330.95054715 -0.166605 332.12224844 -0.16684515 333.32945584 -0.16709258 C371.32062085 -0.17498587 409.31175463 -0.19841798 447.302906 -0.23092079 C487.46242908 -0.26521603 527.62193389 -0.28492977 567.78147185 -0.28822315 C572.18985314 -0.28864069 576.59823442 -0.28912025 581.0066157 -0.28964633 C582.63483548 -0.28983111 582.63483548 -0.28983111 584.29594859 -0.29001964 C601.7672793 -0.29235206 619.23857377 -0.30801439 636.70989156 -0.32848817 C654.2710272 -0.34874074 671.8321193 -0.35422616 689.39326447 -0.34471754 C699.82612555 -0.33950036 710.25884169 -0.34539035 720.69168192 -0.36725221 C727.66362219 -0.38075762 734.63546266 -0.37968556 741.60740393 -0.36685025 C745.57796952 -0.35995194 749.54825795 -0.35928961 753.51879882 -0.37641034 C757.13801694 -0.39188862 760.75673683 -0.38861542 764.37594076 -0.37100006 C766.2762365 -0.36641295 768.1765497 -0.38127461 770.07678458 -0.39715984 C785.66525395 -0.27257844 799.80886928 4.64913388 811.23026186 15.44130117 C823.1542739 28.22780955 825.96951473 42.6660575 825.85646731 59.67628652 C825.86036758 61.31579187 825.86601381 62.95529382 825.87323821 64.5947879 C825.8879066 69.06686545 825.87786326 73.53858779 825.86350149 78.01065356 C825.85234626 82.84645512 825.8643493 87.6822087 825.87334353 92.5180071 C825.88724709 101.97824571 825.87974112 111.43835045 825.86466794 120.89858264 C825.84777155 131.92458883 825.8510227 142.95056202 825.85476203 153.97657716 C825.86063533 173.65511241 825.84648983 193.33358359 825.8218146 213.01210195 C825.79789541 232.08992585 825.79081104 251.16766418 825.80130678 270.24550039 C825.8127264 291.03977423 825.81463314 311.83400852 825.80020869 332.62828189 C825.79868291 334.84730162 825.79716256 337.06632135 825.79564768 339.28534108 C825.79488987 340.37702876 825.79413205 341.46871644 825.79335127 342.59348556 C825.78861652 350.27195552 825.79045414 357.95040778 825.79471308 365.62887746 C825.79964921 374.99140536 825.7936132 384.35385249 825.77381878 393.71636194 C825.76397434 398.48962963 825.75881081 403.26277455 825.76671129 408.03604871 C825.77380565 412.41193675 825.76687635 416.78757789 825.74910767 421.16343355 C825.74508738 422.73997716 825.74602199 424.31654355 825.75262653 425.89307845 C825.82159528 443.90873314 822.53290497 458.51434054 809.81619936 471.84364492 C792.97615544 487.48082856 772.53563195 486.86663936 751.00500094 486.75873622 C746.97711317 486.74414408 742.94930845 486.7588116 738.92142332 486.76962119 C731.87386111 486.7845513 724.82649872 486.78103843 717.77894121 486.7652033 C707.29906198 486.74172116 696.81933241 486.74700281 686.33943958 486.7579122 C667.62094835 486.77647526 648.90255246 486.76680644 630.18406903 486.74543456 C613.80620298 486.7268674 597.42836893 486.71845669 581.05049235 486.72000295 C579.96351998 486.72009463 578.87654762 486.7201863 577.7566367 486.72028076 C573.3441608 486.72067392 568.93168491 486.72112355 564.51920903 486.72165214 C523.14434115 486.72652112 481.76953004 486.70387397 440.3946798 486.66769592 C403.63698122 486.63569233 366.8793311 486.62365438 330.12161928 486.62977773 C327.76065412 486.63016457 325.39968895 486.63055103 323.03872379 486.6309371 C321.87150485 486.63112845 320.7042859 486.63131979 319.50169669 486.63151694 C313.62604278 486.63247128 307.75038886 486.63338564 301.87473494 486.63425618 C300.71555045 486.63442998 299.55636597 486.63460377 298.36205468 486.63478283 C267.64117104 486.63913749 236.92029263 486.62912507 206.1994127 486.61441833 C205.10667928 486.61389819 204.01394585 486.61337804 202.88809929 486.61284214 C201.79736485 486.6123228 200.7066304 486.61180345 199.5828434 486.61126837 C198.49410985 486.61075063 197.40537631 486.61023289 196.28365085 486.60969946 C194.09106391 486.60865138 191.89847699 486.60759116 189.70589007 486.60651874 C174.41975446 486.59913778 159.13362626 486.59704998 143.84748908 486.59851275 C124.15234251 486.60035804 104.4572416 486.59229826 84.76210996 486.56687129 C74.34636916 486.55370409 63.93070125 486.54869675 53.51495391 486.55550983 C46.55862733 486.55922011 39.60236731 486.55201908 32.64605853 486.53591744 C28.682193 486.52703969 24.71847748 486.52285076 20.75460877 486.53184462 C17.14513349 486.53992958 13.5359518 486.53410959 9.92650845 486.51742773 C8.02417905 486.51214671 6.12182598 486.52146386 4.21951553 486.53146213 C-11.40406775 486.42220599 -25.07786597 481.3712654 -36.45723814 470.48426992 C-48.48573995 457.532151 -50.94901006 443.20457741 -50.91216367 426.14462453 C-50.91590268 424.50531242 -50.9205052 422.8660021 -50.92589432 421.22669458 C-50.93810888 416.73202045 -50.93786567 412.23742083 -50.93550557 407.7427339 C-50.93509701 402.89117149 -50.94614032 398.03963286 -50.95562071 393.18808156 C-50.97222346 383.68642631 -50.97772993 374.18479587 -50.97884546 364.68312732 C-50.97979632 356.95792972 -50.98390853 349.2327403 -50.99024671 341.50754529 C-51.00785751 319.59632364 -51.01708589 297.68512157 -51.01558577 275.7738928 C-51.01550585 274.59300719 -51.01542594 273.41212158 -51.01534361 272.19545156 C-51.01526185 271.01312093 -51.01518008 269.83079029 -51.01509584 268.61263146 C-51.0142831 249.4551042 -51.03341838 230.29765558 -51.06162034 211.14015106 C-51.09036167 191.46066346 -51.10415993 171.7812142 -51.10243279 152.10170507 C-51.1017693 141.05668529 -51.10724368 130.01174796 -51.12878889 118.96674711 C-51.14701713 109.56200701 -51.15133452 100.15738672 -51.13777004 90.75263659 C-51.13124859 85.95708058 -51.13109343 81.16175432 -51.14847654 76.3662203 C-51.1642488 71.96973089 -51.16130142 67.57365261 -51.14390828 63.17717298 C-51.14084749 61.593071 -51.14443577 60.00893801 -51.15562843 58.42487261 C-51.26933465 41.17987373 -47.05558432 27.17116034 -35.16036314 14.48817617 C-25.65433172 5.57258148 -13.08731136 0.00989999 0 0 Z " fill="#0F82D0" transform="translate(124.64473813772202,268.87119883298874)"/>
<path d="M0 0 C10.89 0 21.78 0 33 0 C33.33 17.82 33.66 35.64 34 54 C36.64 51.36 39.28 48.72 42 46 C51.67357985 40.53232443 61.44046856 39.23406634 72.375 42.125 C82.85439272 45.81251135 90.23459834 54.23949927 95.25 63.875 C104.68243352 83.82145275 104.68489132 108.44555539 97.93359375 129.29296875 C93.40745235 141.07886169 86.75226147 150.17264793 75.61328125 156.31640625 C65.78549864 160.63581453 53.05359065 160.71222763 42.875 157.4375 C37.76716611 155.25068394 33.8644414 151.94195169 30 148 C29.67 150.97 29.34 153.94 29 157 C19.76 157 10.52 157 1 157 C0.67 105.19 0.34 53.38 0 0 Z " fill="#FBFCFD" transform="translate(313,414)"/>
<path d="M0 0 C12.54 0 25.08 0 38 0 C41.37449393 10.12348178 41.37449393 10.12348178 42.61889648 14.58764648 C42.90067245 15.59399139 43.18244843 16.6003363 43.47276306 17.63717651 C43.76921219 18.7043692 44.06566132 19.77156189 44.37109375 20.87109375 C44.68990005 22.0112796 45.00870636 23.15146545 45.33717346 24.32620239 C46.01940233 26.76661954 46.70068622 29.20730102 47.38110352 31.64822388 C49.16457036 38.04548895 50.95528811 44.44072391 52.74609375 50.8359375 C52.92551891 51.47695215 53.10494408 52.1179668 53.28980637 52.77840614 C56.81894314 65.38485236 60.39585514 77.97731491 64 90.5625 C64.38839554 91.91902176 64.38839554 91.91902176 64.78463745 93.302948 C66.18783862 98.20251743 67.59291494 103.1015446 69 108 C72.02712059 101.59290428 73.78969053 94.9548727 75.625 88.125 C76.15162264 86.19115264 76.67824795 84.257306 77.20499325 82.32349205 C77.76044138 80.2807157 78.31345928 78.23729581 78.86575317 76.19366455 C80.57308774 69.8768919 82.29542873 63.56420524 84.01666451 57.25120926 C84.58954212 55.14954406 85.1618419 53.04772205 85.7341156 50.94589233 C90.3702449 33.92978625 95.18180116 16.96548889 100 0 C111.22 0 122.44 0 134 0 C125.85956554 27.46722754 117.61751722 54.90205956 109.29174805 82.31355286 C101.74127915 107.17462197 94.32202159 132.07025981 87 157 C74.13 157 61.26 157 48 157 C44.62392431 147.9971315 44.62392431 147.9971315 43.37207031 143.97363281 C43.08530426 143.05550308 42.79853821 142.13737335 42.50308228 141.19142151 C42.19784637 140.20528366 41.89261047 139.21914581 41.578125 138.203125 C41.24509369 137.13283554 40.91206238 136.06254608 40.56893921 134.95982361 C39.45976789 131.3907625 38.35464211 127.82046534 37.25 124.25 C36.86704773 123.01488678 36.48409546 121.77977356 36.08953857 120.50723267 C27.80517724 93.78670012 19.70259041 67.01106994 11.61816406 40.22949219 C11.37748766 39.43221993 11.13681126 38.63494768 10.88884163 37.81351566 C9.75852385 34.0687641 8.62873963 30.32385318 7.50009155 26.57859802 C7.09332498 25.22972548 6.68655625 23.8808536 6.27978516 22.53198242 C5.89929016 21.26945648 5.51879517 20.00693054 5.12677002 18.70614624 C3.68244916 13.95551902 2.19987727 9.21710688 0.70663452 4.48164368 C0 2 0 2 0 0 Z " fill="#FBFCFD" transform="translate(127,414)"/>
<path d="M0 0 C0.33 28.38 0.66 56.76 1 86 C4.63 81.38 8.26 76.76 12 72 C14.22097237 69.24227276 16.44467961 66.48959187 18.6875 63.75 C19.71265787 62.49513326 20.7373909 61.23991935 21.76171875 59.984375 C22.2932959 59.36159668 22.82487305 58.73881836 23.37255859 58.09716797 C25.09840828 55.98031603 25.09840828 55.98031603 26.50634766 53.31298828 C28.71493775 49.73092527 30.65505452 46.62217768 34.9258728 45.48901367 C40.60916999 44.74823676 46.29438846 45.08977324 52 45.375 C53.74596633 45.425218 55.4920714 45.4708354 57.23828125 45.51171875 C61.495639 45.62136202 65.74628291 45.79353972 70 46 C67.20944508 50.27057929 64.3199439 53.97760624 60.8125 57.6875 C56.40152935 62.40521819 52.2661951 67.27554062 48.21484375 72.30859375 C44.62391764 76.67217063 40.81171241 80.82986441 37 85 C44.3379454 101.81330623 52.50882757 118.15712998 60.81323242 134.51000977 C62.49639525 137.82838004 64.17236961 141.15030456 65.84765625 144.47265625 C66.36626724 145.48812027 66.88487823 146.50358429 67.41920471 147.54981995 C67.89067429 148.48607712 68.36214386 149.42233429 68.84790039 150.38696289 C69.26487686 151.20822159 69.68185333 152.02948029 70.11146545 152.87562561 C71 155 71 155 71 158 C58.79 158 46.58 158 34 158 C25.9728033 143.30614841 18.95131937 128.2224686 12 113 C8.85904532 113 7.67535472 114.73886997 5.44140625 116.8671875 C-0.98729356 124.17047901 -0.22911993 131.90970762 -0.0625 141.125 C-0.06558025 142.76563774 -0.07270932 144.40627311 -0.08398438 146.046875 C-0.11016797 150.03483831 -0.05335315 154.00918449 0 158 C-10.56 158 -21.12 158 -32 158 C-32.17456066 147.20841085 -32.34389018 136.41685732 -32.5 125.625 C-32.51187725 124.80439968 -32.5237545 123.98379936 -32.53599167 123.13833237 C-32.94615446 94.52911638 -33.08942262 65.92451428 -33.0625 37.3125 C-33.06164398 36.39616035 -33.06078796 35.47982071 -33.05990601 34.5357132 C-33.04867313 23.35712102 -33.02883887 12.17856052 -33 1 C-21.93771348 -0.28258394 -11.24334078 0 0 0 Z " fill="#FBFCFD" transform="translate(825,413)"/>
<path d="M0 0 C13.82276508 10.00528664 19.90425113 23.77125565 23.1875 40.1875 C23.1875 46.7875 23.1875 53.3875 23.1875 60.1875 C0.7475 60.1875 -21.6925 60.1875 -44.8125 60.1875 C-43.45092802 74.10793043 -43.45092802 74.10793043 -36.1875 84.625 C-31.42962267 87.75518245 -27.42375174 87.76995449 -21.8125 87.1875 C-17.14417217 85.79811672 -14.41414827 83.94341706 -11.375 80.125 C-9.74035149 77.24826316 -9.74035149 77.24826316 -8.8125 74.1875 C0.89368661 74.01918463 10.50903574 74.54532702 20.1875 75.1875 C18.30466524 85.97100817 13.60779324 95.32862207 4.74609375 102.03515625 C-7.74904316 110.40672024 -21.06385769 113.87404476 -36.0234375 111.7265625 C-48.73951569 109.15918329 -58.76044336 103.47920153 -66.8125 93.1875 C-77.69175237 76.71320356 -80.44354424 56.12042308 -77.15625 36.81640625 C-74.19545621 22.39959177 -67.34882048 10.44691513 -55.8125 1.1875 C-38.96182169 -9.40800227 -17.11869311 -10.69559888 0 0 Z " fill="#FBFCFC" transform="translate(498.8125,461.8125)"/>
<path d="M0 0 C7.02559322 5.57565841 11.06920376 13.76997575 12.70703125 22.52734375 C13.0436068 27.2229597 13.0797056 31.91475284 13.12109375 36.62109375 C13.13987152 38.01331646 13.15944942 39.40552858 13.17977905 40.79772949 C13.23099224 44.46471515 13.27058317 48.13173966 13.30792236 51.79888916 C13.3395843 54.72549449 13.37929223 57.65196213 13.41949844 60.57846069 C13.64820117 77.2287005 13.7485231 93.87528121 13.70703125 110.52734375 C3.14703125 110.52734375 -7.41296875 110.52734375 -18.29296875 110.52734375 C-18.32269775 107.12893188 -18.32269775 107.12893188 -18.35302734 103.66186523 C-18.42004441 96.16198517 -18.4976822 88.66224184 -18.58049583 81.16252041 C-18.63036331 76.61708545 -18.67669399 72.07167265 -18.71484375 67.52612305 C-18.75181744 63.13640336 -18.79820974 58.74687354 -18.85103226 54.35731697 C-18.86951215 52.68569342 -18.88464356 51.01402926 -18.89631271 49.34234428 C-18.91328535 46.99422796 -18.94234568 44.64654042 -18.97412109 42.29858398 C-18.97628128 41.61309479 -18.97844147 40.92760559 -18.98066711 40.22134399 C-19.07612098 34.67119925 -19.72542087 29.56515599 -23.16796875 25.08984375 C-28.1124425 22.61760688 -32.87826739 22.82203665 -38.29296875 23.52734375 C-42.9664175 25.53025036 -45.25423277 28.1996309 -47.45031738 32.77392578 C-49.40002732 39.14472938 -48.89895089 46.10628803 -48.90234375 52.71484375 C-48.9173407 54.38494458 -48.93407101 56.05503066 -48.95245361 57.72509766 C-48.99596973 62.09800941 -49.01609107 66.47072115 -49.03118896 70.84381104 C-49.05081711 75.31526438 -49.09278054 79.78650351 -49.1328125 84.2578125 C-49.20794416 93.01429286 -49.25627149 101.77061789 -49.29296875 110.52734375 C-59.85296875 110.52734375 -70.41296875 110.52734375 -81.29296875 110.52734375 C-81.62296875 73.56734375 -81.95296875 36.60734375 -82.29296875 -1.47265625 C-72.06296875 -1.47265625 -61.83296875 -1.47265625 -51.29296875 -1.47265625 C-50.63296875 2.48734375 -49.97296875 6.44734375 -49.29296875 10.52734375 C-48.34421875 9.33109375 -47.39546875 8.13484375 -46.41796875 6.90234375 C-34.4837887 -6.69538867 -15.39648903 -9.88837541 0 0 Z " fill="#FAFCFC" transform="translate(764.29296875,460.47265625)"/>
<path d="M0 0 C11.55 0 23.1 0 35 0 C35 41.58 35 83.16 35 126 C53.48 125.67 71.96 125.34 91 125 C91 135.56 91 146.12 91 157 C61.3 157 31.6 157 1 157 C0.82971049 141.33336495 0.66152736 125.6667255 0.5 110 C0.48812275 108.84833469 0.4762455 107.69666939 0.46400833 106.51010513 C0.09953445 71.00479639 -0.1434958 35.50723946 0 0 Z " fill="#FCFCFC" transform="translate(535,414)"/>
<path d="M0 0 C10.89 0 21.78 0 33 0 C33 36.96 33 73.92 33 112 C22.11 112 11.22 112 0 112 C0 75.04 0 38.08 0 0 Z " fill="#FAFBFC" transform="translate(636,459)"/>
<path d="M0 0 C10.89 0 21.78 0 33 0 C33 36.96 33 73.92 33 112 C22.11 112 11.22 112 0 112 C0 75.04 0 38.08 0 0 Z " fill="#F9FBFC" transform="translate(267,459)"/>
<path d="M0 0 C6.4007254 3.1399785 9.47913094 7.89863645 11.75 14.5 C15.1983634 28.21807952 15.12763111 47.65437696 8.20703125 60.27734375 C5.56602186 64.04655133 2.3957548 66.5347484 -2 68 C-6.63522786 68.53856933 -10.07906346 68.45178019 -14.3125 66.375 C-21.86309979 59.70237693 -23.5039358 51.27981219 -24.17285156 41.46337891 C-24.29102345 38.72407505 -24.3487708 35.99167981 -24.375 33.25 C-24.38885742 32.38753662 -24.40271484 31.52507324 -24.41699219 30.63647461 C-24.34846696 21.18810805 -21.90110404 12.49319076 -16 5 C-10.75333398 0.24139594 -6.97990969 -0.83570588 0 0 Z " fill="#0F7FCF" transform="translate(369,481)"/>
<path d="M0 0 C11.22 0 22.44 0 34 0 C34 9.57 34 19.14 34 29 C22.78 29 11.56 29 0 29 C0 19.43 0 9.86 0 0 Z " fill="#FCFDFD" transform="translate(635,414)"/>
<path d="M0 0 C11.22 0 22.44 0 34 0 C34 9.57 34 19.14 34 29 C22.78 29 11.56 29 0 29 C0 19.43 0 9.86 0 0 Z " fill="#FCFDFD" transform="translate(266,414)"/>
<path d="M0 0 C5.30605409 3.66370401 8.20276367 8.58482879 9.625 14.8125 C9.625 17.1225 9.625 19.4325 9.625 21.8125 C-1.925 21.8125 -13.475 21.8125 -25.375 21.8125 C-25.375 13.84456635 -25.33902825 10.19330676 -21.375 3.8125 C-15.37096843 -2.04509177 -7.7731685 -2.73500373 0 0 Z " fill="#0F7BCD" transform="translate(480.375,479.1875)"/>
<path d="M0 0 C0.33 0 0.66 0 1 0 C1.02505615 0.90016846 1.0501123 1.80033691 1.07592773 2.7277832 C1.17256618 6.15921482 1.27120081 9.59057733 1.37121582 13.02191162 C1.41528224 14.54471894 1.45866177 16.06754629 1.50134277 17.59039307 C1.80272617 28.45980449 1.80272617 28.45980449 2.39453125 39.31640625 C2.45390869 40.19192139 2.51328613 41.06743652 2.57446289 41.96948242 C2.6884792 43.53193406 2.81582126 45.09349106 2.95874023 46.65356445 C3.109375 48.7109375 3.109375 48.7109375 3 52 C2.01 52.99 1.02 53.98 0 55 C0 36.85 0 18.7 0 0 Z " fill="#0360C1" transform="translate(346,415)"/>
<path d="M0 0 C0.96049582 3.8419833 1.08807605 4.61887712 0.00390625 8.109375 C-0.22490234 8.86347656 -0.45371094 9.61757813 -0.68945312 10.39453125 C-0.93630859 11.17183594 -1.18316406 11.94914063 -1.4375 12.75 C-1.68048828 13.54277344 -1.92347656 14.33554687 -2.17382812 15.15234375 C-2.77354195 17.10435346 -3.38558121 19.05256883 -4 21 C-7.00617269 17.99382731 -6.59585316 15.17618402 -7 11 C-6.01 10.34 -5.02 9.68 -4 9 C-3.67 9.33 -3.34 9.66 -3 10 C-2.01 6.7 -1.02 3.4 0 0 Z " fill="#0D65C5" transform="translate(201,503)"/>
<path d="M0 0 C0.33 0 0.66 0 1 0 C1 2.31 1 4.62 1 7 C0.34 7 -0.32 7 -1 7 C-1.12375 7.94875 -1.2475 8.8975 -1.375 9.875 C-2 13 -2 13 -4 15 C-2.07289294 4.44191344 -2.07289294 4.44191344 0 0 Z " fill="#0C66C5" transform="translate(222,542)"/>
<path d="M0 0 C-0.33 1.32 -0.66 2.64 -1 4 C-3.97 4 -6.94 4 -10 4 C-6.86268382 1.90845588 -3.85464592 0 0 0 Z " fill="#0968C7" transform="translate(495,569)"/>
</svg>
